<?xml version="1.0" encoding="utf-8"?>
<!-- Generator: Adobe Illustrator 23.0.1, SVG Export Plug-In . SVG Version: 6.00 Build 0)  -->
<svg version="1.1" id="Layer_1" xmlns="http://www.w3.org/2000/svg" xmlns:xlink="http://www.w3.org/1999/xlink" x="0px" y="0px"
	 width="1440px" height="864px" viewBox="0 0 1440 864" style="enable-background:new 0 0 1440 864;" xml:space="preserve">
<style type="text/css">
	.st0{fill:#FFFFFF;stroke:#000000;stroke-miterlimit:10;}
	.st1{fill:#FFFFFF;stroke:#0D00F4;stroke-width:3;stroke-miterlimit:10;}
	.st2{fill:#FFFFFF;stroke:#0D00F4;stroke-width:5;stroke-miterlimit:10;}
	.st3{fill:none;stroke:#000000;}
</style>
<rect x="886.6" y="88.5" class="st0" width="144" height="144"/>
<path class="st0" d="M1033.1,483.8"/>
<line class="st0" x1="519" y1="818.2" x2="1024.1" y2="818.2"/>
<path class="st0" d="M528.6,483.8"/>
<path class="st0" d="M519.6,469.1"/>
<line class="st0" x1="1024.1" y1="252.7" x2="519.6" y2="252.7"/>
<path class="st0" d="M1024.1,469.1"/>
<g>
	<circle class="st0" cx="958.6" cy="160.5" r="30.6"/>
	<circle class="st0" cx="996.3" cy="122.4" r="4.9"/>
	<circle class="st0" cx="996.3" cy="198.9" r="4.9"/>
	<circle class="st0" cx="919.6" cy="122.4" r="4.9"/>
	<circle class="st0" cx="919.6" cy="198.9" r="4.9"/>
</g>
<g>
	<circle class="st0" cx="761.9" cy="151.6" r="54"/>
	<circle class="st0" cx="761.9" cy="151.6" r="9"/>
	<circle class="st0" cx="761.9" cy="123.9" r="4.9"/>
	<circle class="st0" cx="761.9" cy="179.3" r="4.9"/>
	<circle class="st0" cx="734.2" cy="151.6" r="4.9"/>
	<circle class="st0" cx="789.6" cy="151.6" r="4.9"/>
</g>
<g>
	<circle class="st0" cx="620.4" cy="151.6" r="54"/>
	<circle class="st0" cx="620.4" cy="151.6" r="9"/>
	<circle class="st0" cx="620.4" cy="123.9" r="4.9"/>
	<circle class="st0" cx="620.4" cy="179.3" r="4.9"/>
	<circle class="st0" cx="592.7" cy="151.6" r="4.9"/>
	<circle class="st0" cx="648.2" cy="151.6" r="4.9"/>
</g>
<path class="st0" d="M511,714.1"/>
<path class="st0" d="M511,588.5"/>
<ellipse class="st1" cx="668.5" cy="340.5" rx="31.8" ry="30.2"/>
<ellipse class="st1" cx="893.2" cy="340.5" rx="31.8" ry="30.2"/>
<path class="st2" d="M861.3,363.7c0,15.1-36,27.4-80.5,27.4c-44.5,0-80.5-12.3-80.5-27.4"/>
<path id="path6371_1_" class="st3" d="M519.6,469.1h25.8v8.5h17.5v-8.5h16.8v8.5h17.5v-8.5H614v8.5h17.5v-8.5h16.8v8.5h17.5v-8.5
	h16.8v8.5h17.5v-8.5h16.8v8.5h17.5v-8.5h16.8v8.5h17.5v-8.5h16.8v8.5H803l-0.1-8.5h16.7l0,8.5h17.5l0-8.5H854l0,8.5h17.3l0-8.5h16.8
	"/>
<path id="path6371_2_" class="st3" d="M1333.2,55.7l0-8.5h17.5l0,8.5h16.8"/>
<path id="path6371_3_" class="st3" d="M888.1,469.1l0,8.5h17.5l0-8.5h16.8"/>
<path id="path6371_4_" class="st3" d="M922.4,469.1l0,8.5h17.5l0-8.5h16.8"/>
<path id="path6371_5_" class="st3" d="M956.7,469.1l0,8.5h17.5l0-8.5H991"/>
<path id="path6371_6_" class="st3" d="M991,469.1l0,8.5h17.5l0-8.5h15.6"/>
<path id="path6371_11_" class="st3" d="M528.6,483.8h16.8v8.5h17.5v-8.5h16.8v8.5h17.5v-8.5H614v8.5h17.5v-8.5h16.8v8.5h17.5v-8.5
	h16.8v8.5h17.5v-8.5h16.8v8.5h17.5v-8.5h16.8v8.5h17.5v-8.5h16.8v8.5H803l-0.1-8.5h16.7l0,8.5h17.5l0-8.5H854l0,8.5h17.3l0-8.5h16.8
	"/>
<path id="path6371_10_" class="st3" d="M888.1,483.8l0,8.5h17.5l0-8.5h16.8"/>
<path id="path6371_9_" class="st3" d="M922.4,483.8l0,8.5h17.5l0-8.5h16.8"/>
<path id="path6371_8_" class="st3" d="M956.7,483.8l0,8.5h17.5l0-8.5H991"/>
<path id="path6371_7_" class="st3" d="M991,483.8l0,8.5h17.5l0-8.5h15.6"/>
<path id="path6371_20_" class="st3" d="M493.5,467.5V450h8.5v-16.8h-8.5v-17.5h8.5v-16.8h-8.5v-17.5h8.5v-16.8h-8.5v-17.5h8.5v-16.8
	h-8.5v-17.5h8.5V296h-8.5v-17.5h8.5v-16.8"/>
<path id="path6371_12_" class="st3" d="M502,261.7l-8.5,0v-10.6"/>
<polyline class="st0" points="168.6,476 168.6,180 294.3,180 295.1,250.7 493.5,250.8 "/>
<path class="st0" d="M493.5,467.2"/>
<path id="path6371_27_" class="st3" d="M311.8,195.4"/>
<path id="path6371_29_" class="st3" d="M493.5,467.2"/>
<path id="path6371_25_" class="st3" d="M485,467.2"/>
<path id="path6371_24_" class="st3" d="M492.8,473.4"/>
<path id="path6371_23_" class="st3" d="M475.4,572.6"/>
<path id="path6371_22_" class="st3" d="M485,227.1"/>
<path id="path6371_28_" class="st3" d="M493.5,250.8"/>
<path id="path6371_21_" class="st3" d="M168.6,476h16.8v-8.5h17.5v8.5h16.8v-8.5h17.5v8.5H254v-8.5h17.5v8.5h16.8v-8.5h17.5v8.5
	h16.8v-8.5h17.5v8.5h16.8v-8.5h17.5v8.5h16.8v-8.5h17.5l-0.1,8.5h16.7l0-8.5h17.5l0,8.5h16.8l0-8.5H477l0,8.5h16.8v-8.5"/>
<path class="st0" d="M527.6,714.1"/>
<path class="st0" d="M527.6,588.5"/>
<path id="path6371_31_" class="st3" d="M527.7,675.5"/>
<path id="path6371_30_" class="st3" d="M519.1,492.3h9.5"/>
<path id="path6371_34_" class="st3" d="M519.1,495.4"/>
<path id="path6371_35_" class="st3" d="M510.5,783.9h8.5v-17.5h-8.5v-16.8h8.5v-17.5h-8.5v-16.8h8.5v-17.5h-8.5V681h8.5v-17.5h-8.5
	v-16.8h8.5v-17.5h-8.5v-16.8h8.5v-17.5h-8.5v-16.8h8.5v-17.5l-8.5,0.1V544l8.5,0v-17.5l-8.5,0v-16.8l8.5,0v-17.3"/>
<path id="path6371_32_" class="st3" d="M522.1,807.9"/>
<line class="st3" x1="528.6" y1="483.8" x2="528.6" y2="492.3"/>
<path id="path6371_26_" class="st3" d="M519,818.2v-17.5l-8.5,0v-16.8"/>
<path id="path6371_36_" class="st3" d="M519.6,469.1v-17.5h8.5v-16.8h-8.5v-17.5h8.5v-16.8h-8.5V383h8.5v-16.8h-8.5v-17.5h8.5v-16.8
	h-8.5v-17.5h8.5v-16.8h-8.5v-17.5h8.5v-16.8"/>
<path id="path6371_33_" class="st3" d="M528.1,263.3l-8.5,0v-10.6"/>
<path id="path6371_38_" class="st3" d="M1024.1,469.1v-17.5h8.5v-16.8h-8.5v-17.5h8.5v-16.8h-8.5V383h8.5v-16.8h-8.5v-17.5h8.5
	v-16.8h-8.5v-17.5h8.5v-16.8h-8.5v-17.5h8.5v-16.8"/>
<path id="path6371_37_" class="st3" d="M1032.6,263.3l-8.5,0v-10.6"/>
<path id="path6371_40_" class="st3" d="M1039.1,469v-17.5h8.5v-16.8h-8.5v-17.5h8.5v-16.8h-8.5v-17.5h8.5v-16.8h-8.5v-17.5h8.5
	v-16.8h-8.5v-17.5h8.5v-16.8h-8.5V280h8.5v-16.8"/>
<path id="path6371_39_" class="st3" d="M1047.6,263.2l-8.5,0v-10.5"/>
<path id="path6371_50_" class="st3" d="M1049.3,467.5"/>
<path id="path6371_49_" class="st3" d="M1049.3,251.1"/>
<polyline class="st0" points="1374.2,476.1 1374.2,180.1 1248.5,180.1 1247.7,253.3 1039.1,252.7 "/>
<path class="st0" d="M1049.3,467.3"/>
<path id="path6371_19_" class="st3" d="M1231.1,195.4"/>
<path id="path6371_18_" class="st3" d="M1049.3,467.3"/>
<path id="path6371_17_" class="st3" d="M1057.8,467.3"/>
<path id="path6371_16_" class="st3" d="M1050,473.5"/>
<path id="path6371_15_" class="st3" d="M1057.8,227.2"/>
<path id="path6371_14_" class="st3" d="M1049.3,250.9"/>
<path id="path6371_13_" class="st3" d="M1374.2,476.1h-16.8v-8.5h-17.5v8.5h-16.8v-8.5h-17.5v8.5h-16.8v-8.5h-17.5v8.5h-16.8v-8.5
	H1237v8.5h-16.8v-8.5h-17.5v8.5h-16.8v-8.5h-17.5v8.5h-16.8v-8.5h-17.5l0.1,8.5h-16.7l0-8.5h-17.5l0,8.5h-16.8l0-8.5h-17.3l0,8.5
	H1049V469"/>
<path id="path6371_46_" class="st3" d="M1024.1,818.2"/>
<path id="path6371_47_" class="st3" d="M1023.5,495.4"/>
<path id="path6371_45_" class="st3" d="M1024.1,818.2"/>
<path class="st0" d="M1032.2,714.1"/>
<path class="st0" d="M1032.2,588.5"/>
<path class="st0" d="M1015.6,714.1"/>
<path class="st0" d="M1015.6,588.5"/>
<path id="path6371_48_" class="st3" d="M1015.5,675.5"/>
<path id="path6371_44_" class="st3" d="M1032.7,783.9h-8.5v-17.5h8.5v-16.8h-8.5v-17.5h8.5v-16.8h-8.5v-17.5h8.5V681h-8.5v-17.5h8.5
	v-16.8h-8.5v-17.5h8.5v-16.8h-8.5v-17.5h8.5v-16.8h-8.5v-17.5l8.5,0.1V544l-8.5,0v-17.5l8.5,0v-16.8l-8.5,0l-0.1-25.8"/>
<path id="path6371_43_" class="st3" d="M1024.2,818.2v-17.5l8.5,0v-16.8"/>
<line class="st3" x1="1049.3" y1="467.5" x2="1049.3" y2="467.5"/>
<line class="st3" x1="1049.5" y1="469" x2="1038.6" y2="469"/>
<rect x="208.6" y="200" class="st0" width="50.2" height="117.8"/>
<rect x="1285.3" y="200.1" class="st0" width="50.2" height="117.8"/>
</svg>
