<?xml version="1.0" encoding="utf-8"?>
<!-- Generator: Adobe Illustrator 23.0.1, SVG Export Plug-In . SVG Version: 6.00 Build 0)  -->
<svg version="1.1" id="Layer_1" xmlns="http://www.w3.org/2000/svg" xmlns:xlink="http://www.w3.org/1999/xlink" x="0px" y="0px"
	 viewBox="0 0 1440 864" style="enable-background:new 0 0 1440 864;" xml:space="preserve">
<style type="text/css">
	.st0{fill:#FFFFFF;stroke:#000000;stroke-miterlimit:10;}
</style>
<rect x="40.11" y="349.62" class="st0" width="144" height="144"/>
<polygon class="st0" points="40.11,314.06 310.11,314.06 310.11,26.52 184.55,26.52 184.55,98.74 40.11,99.85 "/>
<rect x="651.11" y="97.65" class="st0" width="504.44" height="216.41"/>
<rect x="1191.11" y="24.07" class="st0" width="216.41" height="504.44"/>
<g>
	<circle class="st0" cx="112.11" cy="421.62" r="30.6"/>
	<circle class="st0" cx="149.83" cy="383.44" r="4.86"/>
	<circle class="st0" cx="149.83" cy="459.94" r="4.86"/>
	<circle class="st0" cx="73.13" cy="383.44" r="4.86"/>
	<circle class="st0" cx="73.13" cy="459.94" r="4.86"/>
</g>
<g>
	<circle class="st0" cx="247.82" cy="79.14" r="30.6"/>
	<circle class="st0" cx="285.54" cy="40.96" r="4.86"/>
	<circle class="st0" cx="285.54" cy="117.46" r="4.86"/>
	<circle class="st0" cx="208.84" cy="40.96" r="4.86"/>
	<circle class="st0" cx="208.84" cy="117.46" r="4.86"/>
</g>
<polygon class="st0" points="345.61,314.06 615.61,314.06 615.61,26.52 490.05,26.52 490.05,98.74 345.61,99.85 "/>
<g>
	<circle class="st0" cx="553.32" cy="79.14" r="30.6"/>
	<circle class="st0" cx="591.04" cy="40.96" r="4.86"/>
	<circle class="st0" cx="591.04" cy="117.46" r="4.86"/>
	<circle class="st0" cx="514.34" cy="40.96" r="4.86"/>
	<circle class="st0" cx="514.34" cy="117.46" r="4.86"/>
</g>
<polygon class="st0" points="345.61,632.08 615.61,632.08 615.61,344.54 490.05,344.54 490.05,416.77 345.61,417.88 "/>
<ellipse class="st0" cx="553.32" cy="397.16" rx="9" ry="9.22"/>
<g>
	<circle class="st0" cx="264.86" cy="421.62" r="54"/>
	<circle class="st0" cx="264.86" cy="421.62" r="9"/>
	<circle class="st0" cx="264.86" cy="393.91" r="4.86"/>
	<circle class="st0" cx="264.86" cy="449.35" r="4.86"/>
	<circle class="st0" cx="237.14" cy="421.63" r="4.86"/>
	<circle class="st0" cx="292.58" cy="421.63" r="4.86"/>
</g>
<g>
	<circle class="st0" cx="264.86" cy="538.77" r="54"/>
	<circle class="st0" cx="264.86" cy="538.77" r="9"/>
	<circle class="st0" cx="264.86" cy="511.06" r="4.86"/>
	<circle class="st0" cx="264.86" cy="566.5" r="4.86"/>
	<circle class="st0" cx="237.14" cy="538.78" r="4.86"/>
	<circle class="st0" cx="292.58" cy="538.78" r="4.86"/>
</g>
</svg>
