<?xml version="1.0" encoding="utf-8"?>
<!-- Generator: Adobe Illustrator 23.0.1, SVG Export Plug-In . SVG Version: 6.00 Build 0)  -->
<svg version="1.1" id="Layer_1" xmlns="http://www.w3.org/2000/svg" xmlns:xlink="http://www.w3.org/1999/xlink" x="0px" y="0px"
	 width="1440px" height="864px" viewBox="0 0 1440 864" style="enable-background:new 0 0 1440 864;" xml:space="preserve">
<style type="text/css">
	.st0{fill:#FFFFFF;stroke:#DF00A9;stroke-miterlimit:10;}
	.st1{fill:#FFFFFF;stroke:#000000;stroke-miterlimit:10;}
	.st2{fill:none;stroke:#000000;stroke-miterlimit:10;}
	.st3{fill:#FFFFFF;stroke:#0D00F4;stroke-width:3;stroke-miterlimit:10;}
	.st4{fill:#FFFFFF;stroke:#0D00F4;stroke-width:5;stroke-miterlimit:10;}
	.st5{fill:none;stroke:#000000;}
	.st6{fill:none;stroke:#DF00A9;}
	.st7{fill:#FFFFFF;stroke:#00DF2B;stroke-miterlimit:10;}
	.st8{fill:#FFFFFF;stroke:#05C900;stroke-miterlimit:10;}
</style>
<rect x="886.6" y="88.5" class="st0" width="144" height="144"/>
<path class="st1" d="M1033.1,483.8"/>
<line class="st2" x1="519" y1="714.1" x2="1023.8" y2="715.1"/>
<path class="st1" d="M528.6,483.8"/>
<path class="st1" d="M519.6,469.1"/>
<line class="st2" x1="1024.1" y1="252.7" x2="510.6" y2="252.7"/>
<path class="st1" d="M1024.1,469.1"/>
<g>
	<circle class="st0" cx="958.6" cy="160.5" r="30.6"/>
	<circle class="st0" cx="996.3" cy="122.4" r="4.9"/>
	<circle class="st0" cx="996.3" cy="198.9" r="4.9"/>
	<circle class="st0" cx="919.6" cy="122.4" r="4.9"/>
	<circle class="st0" cx="919.6" cy="198.9" r="4.9"/>
</g>
<g>
	<circle class="st0" cx="761.9" cy="151.6" r="54"/>
	<circle class="st0" cx="761.9" cy="151.6" r="9"/>
	<circle class="st0" cx="761.9" cy="123.9" r="4.9"/>
	<circle class="st0" cx="761.9" cy="179.3" r="4.9"/>
	<circle class="st0" cx="734.2" cy="151.6" r="4.9"/>
	<circle class="st0" cx="789.6" cy="151.6" r="4.9"/>
</g>
<g>
	<circle class="st0" cx="576" cy="144" r="11.3"/>
	<circle class="st0" cx="576" cy="166.7" r="5.4"/>
	<circle class="st0" cx="592" cy="160" r="5.4"/>
	<circle class="st0" cx="592" cy="128" r="5.4"/>
	<circle class="st0" cx="560" cy="160" r="5.4"/>
	<circle class="st0" cx="560" cy="128" r="5.4"/>
	<circle class="st0" cx="576" cy="121.3" r="5.4"/>
	<circle class="st0" cx="553.3" cy="144" r="5.4"/>
	<circle class="st0" cx="598.7" cy="144" r="5.4"/>
</g>
<g>
	<circle class="st0" cx="621.1" cy="144" r="11.3"/>
	<circle class="st0" cx="621.1" cy="166.7" r="5.4"/>
	<circle class="st0" cx="637.1" cy="160" r="5.4"/>
	<circle class="st0" cx="637.1" cy="128" r="5.4"/>
	<circle class="st0" cx="605.1" cy="160" r="5.4"/>
	<circle class="st0" cx="605.1" cy="128" r="5.4"/>
	<circle class="st0" cx="621.1" cy="121.3" r="5.4"/>
	<circle class="st0" cx="598.4" cy="144" r="5.4"/>
	<circle class="st0" cx="643.8" cy="144" r="5.4"/>
</g>
<g>
	<circle class="st0" cx="666.5" cy="144" r="11.3"/>
	<circle class="st0" cx="666.5" cy="166.7" r="5.4"/>
	<circle class="st0" cx="682.5" cy="160" r="5.4"/>
	<circle class="st0" cx="682.5" cy="128" r="5.4"/>
	<circle class="st0" cx="650.4" cy="160" r="5.4"/>
	<circle class="st0" cx="650.4" cy="128" r="5.4"/>
	<circle class="st0" cx="666.5" cy="121.3" r="5.4"/>
	<circle class="st0" cx="643.8" cy="144" r="5.4"/>
	<circle class="st0" cx="689.1" cy="144" r="5.4"/>
</g>
<g>
	<circle class="st0" cx="530.6" cy="144" r="11.3"/>
	<circle class="st0" cx="530.6" cy="166.7" r="5.4"/>
	<circle class="st0" cx="546.7" cy="160" r="5.4"/>
	<circle class="st0" cx="546.7" cy="128" r="5.4"/>
	<circle class="st0" cx="514.6" cy="160" r="5.4"/>
	<circle class="st0" cx="514.6" cy="128" r="5.4"/>
	<circle class="st0" cx="530.6" cy="121.3" r="5.4"/>
	<circle class="st0" cx="508" cy="144" r="5.4"/>
	<circle class="st0" cx="553.3" cy="144" r="5.4"/>
</g>
<g>
	<circle class="st0" cx="485" cy="144" r="11.3"/>
	<circle class="st0" cx="485" cy="166.7" r="5.4"/>
	<circle class="st0" cx="501" cy="160" r="5.4"/>
	<circle class="st0" cx="501" cy="128" r="5.4"/>
	<circle class="st0" cx="469" cy="160" r="5.4"/>
	<circle class="st0" cx="469" cy="128" r="5.4"/>
	<circle class="st0" cx="485" cy="121.3" r="5.4"/>
	<circle class="st0" cx="462.3" cy="144" r="5.4"/>
	<circle class="st0" cx="507.7" cy="144" r="5.4"/>
</g>
<path class="st1" d="M511,714.1"/>
<path class="st1" d="M511,588.5"/>
<ellipse class="st3" cx="668.5" cy="340.5" rx="31.8" ry="30.2"/>
<ellipse class="st3" cx="893.2" cy="340.5" rx="31.8" ry="30.2"/>
<path class="st4" d="M861.3,363.7c0,15.1-36,27.4-80.5,27.4s-80.5-12.3-80.5-27.4"/>
<path id="path6371_1_" class="st5" d="M510.6,469.1h34.8v8.5h17.5v-8.5h16.8v8.5h17.5v-8.5H614v8.5h17.5v-8.5h16.8v8.5h17.5v-8.5
	h16.8v8.5h17.5v-8.5h16.8v8.5h17.5v-8.5h16.8v8.5h17.5v-8.5h16.8v8.5H803l-0.1-8.5h16.7v8.5h17.5v-8.5H854v8.5h17.3v-8.5h16.8"/>
<path id="path6371_2_" class="st5" d="M1333.2,55.7v-8.5h17.5v8.5h16.8"/>
<path id="path6371_3_" class="st5" d="M888.1,469.1v8.5h17.5v-8.5h16.8"/>
<path id="path6371_4_" class="st5" d="M922.4,469.1v8.5h17.5v-8.5h16.8"/>
<path id="path6371_5_" class="st5" d="M956.7,469.1v8.5h17.5v-8.5H991"/>
<path id="path6371_6_" class="st5" d="M991,469.1v8.5h17.5v-8.5h15.6"/>
<path id="path6371_11_" class="st5" d="M528.6,483.8h16.8v8.5h17.5v-8.5h16.8v8.5h17.5v-8.5H614v8.5h17.5v-8.5h16.8v8.5h17.5v-8.5
	h16.8v8.5h17.5v-8.5h16.8v8.5h17.5v-8.5h16.8v8.5h17.5v-8.5h16.8v8.5H803l-0.1-8.5h16.7v8.5h17.5v-8.5H854v8.5h17.3v-8.5h16.8"/>
<path id="path6371_10_" class="st5" d="M888.1,483.8v8.5h17.5v-8.5h16.8"/>
<path id="path6371_9_" class="st5" d="M922.4,483.8v8.5h17.5v-8.5h16.8"/>
<path id="path6371_8_" class="st5" d="M956.7,483.8v8.5h17.5v-8.5H991"/>
<path id="path6371_7_" class="st5" d="M991,483.8v8.5h17.5v-8.5h15.6"/>
<path id="path6371_20_" class="st5" d="M493.5,467.5V450h8.5v-16.8h-8.5v-17.5h8.5v-16.8h-8.5v-17.5h8.5v-16.8h-8.5v-17.5h8.5v-16.8
	h-8.5v-17.5h8.5V296h-8.5v-17.5h8.5v-16.8"/>
<path id="path6371_12_" class="st5" d="M502,261.7h-8.5v-10.6"/>
<polyline class="st1" points="114.6,476 114.6,180 240.3,180 241.1,250.7 493.5,250.8 "/>
<path class="st1" d="M493.5,467.2"/>
<path id="path6371_27_" class="st5" d="M311.8,195.4"/>
<path id="path6371_29_" class="st5" d="M493.5,467.2"/>
<path id="path6371_25_" class="st5" d="M485,467.2"/>
<path id="path6371_24_" class="st5" d="M492.8,473.4"/>
<path id="path6371_23_" class="st5" d="M475.4,572.6"/>
<path id="path6371_22_" class="st6" d="M485,227.1"/>
<path id="path6371_28_" class="st5" d="M493.5,250.8"/>
<path id="path6371_21_" class="st5" d="M114.6,476h173.7v-8.5h17.5v8.5h16.8v-8.5h17.5v8.5h16.8v-8.5h17.5v8.5h16.8v-8.5h17.5
	l-0.1,8.5h16.7v-8.5h17.5v8.5h16.8v-8.5H477v8.5h16.8v-8.5"/>
<path class="st1" d="M527.6,714.1"/>
<path class="st1" d="M527.6,588.5"/>
<path id="path6371_31_" class="st5" d="M527.7,675.5"/>
<path id="path6371_30_" class="st5" d="M519.1,492.3h9.5"/>
<path id="path6371_34_" class="st5" d="M519.1,495.4"/>
<path id="path6371_26_" class="st5" d="M519,714.1v-16.3h-8.5V681h8.5v-17.5h-8.5v-16.8h8.5v-17.5h-8.5v-16.8h8.5v-17.5h-8.5v-16.8
	h8.5v-17.5l-8.5,0.1V544h8.5v-17.5h-8.5v-16.8h8.5v-17.3"/>
<line class="st5" x1="528.6" y1="483.8" x2="528.6" y2="492.3"/>
<path id="path6371_36_" class="st5" d="M510.6,469.1l0-17.5h8.5v-16.8h-8.5v-17.5h8.5v-16.8h-8.5V383h8.5v-16.8h-8.5v-17.5h8.5
	v-16.8h-8.5v-17.5h8.5v-16.8h-8.5v-17.5h8.5v-16.8"/>
<path id="path6371_33_" class="st5" d="M519.1,263.3h-8.5l0-10.6"/>
<path id="path6371_38_" class="st5" d="M1024.1,469.1v-17.5h8.5v-16.8h-8.5v-17.5h8.5v-16.8h-8.5V383h8.5v-16.8h-8.5v-17.5h8.5
	v-16.8h-8.5v-17.5h8.5v-16.8h-8.5v-17.5h8.5v-16.8"/>
<path id="path6371_37_" class="st5" d="M1032.6,263.3h-8.5v-10.6"/>
<path id="path6371_40_" class="st5" d="M1039.1,469v-17.5h8.5v-16.8h-8.5v-17.5h8.5v-16.8h-8.5v-17.5h8.5v-16.8h-8.5v-17.5h8.5
	v-16.8h-8.5v-17.5h8.5v-16.8h-8.5V280h8.5v-16.8"/>
<path id="path6371_39_" class="st5" d="M1047.6,263.2h-8.5v-10.5"/>
<path id="path6371_50_" class="st5" d="M1049.3,467.5"/>
<path id="path6371_49_" class="st5" d="M1049.3,251.1"/>
<polyline class="st1" points="1428.2,476.1 1428.2,180.1 1302.5,180.1 1301.7,253.3 1039.1,252.7 "/>
<path class="st1" d="M1049.3,467.3"/>
<path id="path6371_19_" class="st5" d="M1231.1,195.4"/>
<path id="path6371_18_" class="st5" d="M1049.3,467.3"/>
<path id="path6371_17_" class="st5" d="M1057.8,467.3"/>
<path id="path6371_16_" class="st5" d="M1050,473.5"/>
<path id="path6371_15_" class="st6" d="M1057.8,227.2"/>
<path id="path6371_14_" class="st5" d="M1049.3,250.9"/>
<path id="path6371_43_" class="st5" d="M1357.4,476.1h-102.9v-8.5H1237v8.5h-16.8v-8.5h-17.5v8.5h-16.8v-8.5h-17.5v8.5h-16.8v-8.5
	h-17.5l0.1,8.5h-16.7v-8.5H1100v8.5h-16.8v-8.5h-17.3v8.5H1049V469"/>
<path id="path6371_35_" class="st5" d="M1428.2,476.1h-70.8"/>
<path id="path6371_47_" class="st5" d="M1023.5,495.4"/>
<path class="st1" d="M1032.2,714.1"/>
<path class="st1" d="M1032.2,588.5"/>
<path class="st1" d="M1015.6,714.1"/>
<path class="st1" d="M1015.6,588.5"/>
<path id="path6371_48_" class="st5" d="M1015.5,675.5"/>
<path id="path6371_32_" class="st5" d="M1024.2,715.3v-17.5h8.5V681h-8.5v-17.5h8.5v-16.8h-8.5v-17.5h8.5v-16.8h-8.5v-17.5h8.5
	v-16.8h-8.5v-17.5l8.5,0.1V544h-8.5v-17.5h8.5v-16.8h-8.5l-0.1-25.8"/>
<line class="st5" x1="1049.3" y1="467.5" x2="1049.3" y2="467.5"/>
<line class="st5" x1="1049.5" y1="469" x2="1038.6" y2="469"/>
<rect x="150.9" y="200" class="st7" width="57.6" height="117.8"/>
<rect x="1335.6" y="200.1" class="st8" width="57.6" height="117.8"/>
<g>
	<circle class="st8" cx="273.7" cy="411.7" r="11.3"/>
	<circle class="st8" cx="273.7" cy="434.4" r="5.4"/>
	<circle class="st8" cx="273.7" cy="389.1" r="5.4"/>
	<circle class="st8" cx="251" cy="411.7" r="5.4"/>
	<circle class="st8" cx="296.4" cy="411.7" r="5.4"/>
</g>
<circle class="st8" cx="364.2" cy="434.4" r="5.4"/>
<circle class="st8" cx="364.2" cy="389.1" r="5.4"/>
<circle class="st8" cx="182.7" cy="434.4" r="5.4"/>
<circle class="st8" cx="182.7" cy="389.1" r="5.4"/>
<path class="st8" d="M160,406.3"/>
<g>
	<ellipse class="st8" cx="1350.4" cy="327.7" rx="5.4" ry="5.3"/>
	<ellipse class="st8" cx="1350.4" cy="190.9" rx="5.4" ry="5.3"/>
	<ellipse class="st8" cx="1378.4" cy="327.7" rx="5.4" ry="5.3"/>
	<ellipse class="st8" cx="1378.4" cy="190.9" rx="5.4" ry="5.3"/>
</g>
<g>
	<ellipse class="st8" cx="165.7" cy="327.1" rx="5.4" ry="5.3"/>
	<ellipse class="st8" cx="165.7" cy="190.3" rx="5.4" ry="5.3"/>
	<ellipse class="st8" cx="193.8" cy="327.1" rx="5.4" ry="5.3"/>
	<ellipse class="st8" cx="193.8" cy="190.3" rx="5.4" ry="5.3"/>
</g>
</svg>
